# xmcd
#
# Track frame offsets:
#	150
#	23507
#	39242
#	52327
#	62902
#	83282
#	94142
#	104625
#	117600
#	133225
#	145975
#	157375
#	169087
#	181000
#
# Disc length: 2626 seconds
#
# Revision: 0
# Processed by: cddbd v1.5PL3 Copyright (c) Steve Scherf et al.
# Submitted via: dBpowerAMP V4.0
#
DISCID=c50a400e
DTITLE=Grupo Musicanto - De Noel a Chico
DYEAR=1900
DGENRE=Easy Listening
TTITLE0=Vai Passar
TTITLE1=Feitiço da Vila
TTITLE2=A Rita
TTITLE3=Conversa de Botequim
TTITLE4=Quem Te Viu, Quem Te Ve
TTITLE5=Tema para Noel
TTITLE6=A Banda
TTITLE7=Com Que Roupa
TTITLE8=Roda Viva
TTITLE9=Palpite Infeliz
TTITLE10=Pagode Com Classe
TTITLE11=Fita Amarela
TTITLE12=Ole Ola
TTITLE13=Último Desejo
EXTD=
EXTT0=
EXTT1=
EXTT2=
EXTT3=
EXTT4=
EXTT5=
EXTT6=
EXTT7=
EXTT8=
EXTT9=
EXTT10=
EXTT11=
EXTT12=
EXTT13=
PLAYORDER=
